<svg xmlns="http://www.w3.org/2000/svg" width="324.256" height="243.773" id="bugatti">
  <path fill-rule="evenodd" d="M249.873 204.338c19.627 0 31.369-14.044 31.369-31.369s-11.743-31.365-31.369-31.365h-63.629v62.735Zm0-109.339c17.271 0 27.784-12.437 27.784-27.782s-10.513-27.784-27.784-27.784h-63.629v55.565Zm-153.259 46.6v15.535H57.191V79.465h39.423V95h37.648V39.433H39.436v19.722H.001l.006-19.718V0h249.866a70.8 70.8 0 0 1 53.256 117.455 74.386 74.386 0 0 1-53.258 126.317H.009l-.006-39.433v-19.717h39.433v19.718h94.826v-62.735H96.614Z"></path>
</svg>
